<?xml version="1.0" encoding="iso-8859-1"?>
<!-- Generator: Adobe Illustrator 16.0.0, SVG Export Plug-In . SVG Version: 6.00 Build 0)  -->
<!DOCTYPE svg PUBLIC "-//W3C//DTD SVG 1.1//EN" "http://www.w3.org/Graphics/SVG/1.1/DTD/svg11.dtd">
<svg version="1.1" id="Capa_1" xmlns="http://www.w3.org/2000/svg" xmlns:xlink="http://www.w3.org/1999/xlink" x="0px" y="0px"
	 width="600.113px" height="600.113px" fill="#FF4800" viewBox="0 0 600.113 600.113" style="enable-background:new 0 0 600.113 600.113;"
	 xml:space="preserve">
<g>
	<g>
		<g>
			<path d="M4.549,110.703v430.77c0,32.059,26.082,58.141,58.14,58.141h474.737c32.057,0,58.139-26.082,58.139-58.141v-430.77
				c0-32.059-26.082-58.14-58.139-58.14h-59.838V21.92c0-11.83-9.59-21.42-21.42-21.42s-21.42,9.59-21.42,21.42v30.642H165.366
				V21.92c0-11.83-9.59-21.42-21.42-21.42s-21.42,9.59-21.42,21.42v30.642H62.689C30.63,52.563,4.549,78.645,4.549,110.703z
				 M552.725,541.473c0,8.449-6.85,15.301-15.299,15.301H62.688c-8.45,0-15.3-6.852-15.3-15.301V207.399h505.336V541.473
				L552.725,541.473z M143.946,141.266c11.83,0,21.42-9.59,21.42-21.42V95.403h269.382v24.443c0,11.83,9.59,21.42,21.42,21.42
				s21.42-9.59,21.42-21.42V95.403h59.838c8.449,0,15.299,6.85,15.299,15.3v53.856H47.389v-53.856c0-8.451,6.85-15.3,15.3-15.3
				h59.836v24.443C122.526,131.676,132.115,141.266,143.946,141.266z"/>
			<path d="M537.426,600.113H62.688c-32.334,0-58.64-26.306-58.64-58.641v-430.77c0-32.334,26.306-58.64,58.641-58.641h59.336V21.92
				c0-12.087,9.833-21.92,21.92-21.92s21.92,9.833,21.92,21.92v30.142h268.382V21.92c0-12.087,9.833-21.92,21.92-21.92
				s21.92,9.833,21.92,21.92v30.143h59.338c32.333,0,58.639,26.306,58.639,58.64v430.77
				C596.064,573.808,569.759,600.113,537.426,600.113z M62.689,53.062c-31.783,0-57.641,25.858-57.641,57.641v430.77
				c0,31.783,25.857,57.641,57.64,57.641h474.737c31.782,0,57.639-25.857,57.639-57.641v-430.77c0-31.783-25.856-57.64-57.639-57.64
				h-60.338V21.92c0-11.536-9.385-20.92-20.92-20.92s-20.92,9.385-20.92,20.92v31.142H164.866V21.92
				c0-11.536-9.385-20.92-20.92-20.92s-20.92,9.385-20.92,20.92v31.142H62.689z M537.426,557.273H62.688
				c-8.712,0-15.8-7.088-15.8-15.801V206.899h506.336v334.574C553.225,550.186,546.138,557.273,537.426,557.273z M47.889,207.899
				v333.574c0,8.161,6.639,14.801,14.8,14.801h474.737c8.16,0,14.799-6.64,14.799-14.801V207.899H47.889z M553.225,165.059H46.889
				v-54.356c0-8.712,7.088-15.8,15.8-15.8h60.336v24.943c0.001,11.535,9.386,20.92,20.921,20.92c11.535,0,20.92-9.385,20.92-20.92
				V94.903h270.382v24.943c0,11.535,9.385,20.92,20.92,20.92s20.92-9.385,20.92-20.92V94.903h60.338
				c8.712,0,15.799,7.088,15.799,15.8V165.059z M47.889,164.059h504.336v-53.356c0-8.161-6.639-14.8-14.799-14.8h-59.338v23.943
				c0,12.087-9.833,21.92-21.92,21.92s-21.92-9.833-21.92-21.92V95.903H165.866v23.943c0,12.087-9.833,21.92-21.92,21.92
				c-12.086,0-21.92-9.833-21.921-21.92V95.903H62.688c-8.161,0-14.8,6.639-14.8,14.8V164.059z"/>
		</g>
		<g>
			<path d="M157.429,308.062c2.065,0,4.167-0.301,6.246-0.934l10.98-3.342v184.289c0,11.83,9.59,21.42,21.42,21.42
				s21.42-9.59,21.42-21.42V275.182v-0.307c0-0.142-0.008-0.282-0.011-0.423c-0.004-0.201-0.005-0.401-0.015-0.603
				c-0.018-0.375-0.044-0.749-0.082-1.119c-0.01-0.098-0.023-0.196-0.035-0.294c-0.027-0.238-0.056-0.476-0.091-0.711
				c-0.036-0.242-0.079-0.482-0.124-0.724c-0.017-0.092-0.031-0.185-0.049-0.276c-0.09-0.454-0.201-0.907-0.321-1.359
				c-0.042-0.157-0.084-0.312-0.129-0.467c-0.025-0.087-0.046-0.173-0.072-0.26c-0.083-0.274-0.176-0.543-0.27-0.812
				c-0.06-0.172-0.123-0.343-0.187-0.514c-0.126-0.336-0.261-0.667-0.402-0.993c-0.065-0.149-0.131-0.297-0.2-0.445
				c-0.192-0.416-0.392-0.827-0.607-1.224c-1.157-2.134-2.65-4.014-4.389-5.597c-0.015-0.013-0.028-0.027-0.043-0.04
				c-0.197-0.179-0.4-0.351-0.604-0.523c-0.068-0.058-0.135-0.117-0.204-0.173c-0.151-0.125-0.307-0.242-0.462-0.364
				c-0.127-0.098-0.252-0.199-0.382-0.294c-0.099-0.073-0.201-0.143-0.302-0.214c-0.189-0.136-0.379-0.271-0.574-0.4
				c-0.043-0.028-0.086-0.055-0.129-0.083c-2.229-1.463-4.744-2.525-7.447-3.074c-0.443-0.09-0.892-0.162-1.345-0.224
				c-0.16-0.022-0.321-0.042-0.482-0.061c-0.357-0.041-0.718-0.074-1.081-0.096c-0.172-0.012-0.345-0.021-0.518-0.028
				c-0.287-0.012-0.575-0.022-0.865-0.022c-0.092,0-0.182,0.006-0.274,0.007c-0.16,0.002-0.32,0.006-0.48,0.012
				c-0.467,0.016-0.933,0.042-1.392,0.088c-0.096,0.01-0.193,0.024-0.289,0.035c-0.24,0.028-0.48,0.057-0.718,0.091
				c-0.236,0.036-0.472,0.077-0.708,0.121c-0.098,0.018-0.196,0.034-0.294,0.053c-0.365,0.072-0.73,0.156-1.095,0.248
				c-0.192,0.048-0.38,0.105-0.57,0.158c-0.139,0.039-0.278,0.073-0.417,0.116l-0.288,0.088l-38.35,11.674
				c-11.317,3.446-17.699,15.413-14.254,26.73C139.757,302.113,148.248,308.062,157.429,308.062z"/>
			<path d="M196.075,509.996c-12.087,0-21.92-9.833-21.92-21.92V304.462l-10.335,3.146c-2.082,0.634-4.232,0.955-6.391,0.955
				c-9.708,0-18.132-6.245-20.963-15.541c-3.519-11.562,3.024-23.833,14.587-27.354l38.637-11.761
				c0.093-0.029,0.187-0.054,0.28-0.079l0.312-0.087c0.139-0.04,0.279-0.08,0.42-0.115c0.373-0.094,0.746-0.179,1.12-0.253
				l0.302-0.054c0.239-0.044,0.48-0.086,0.722-0.123c0.246-0.036,0.49-0.065,0.735-0.093l0.294-0.035
				c0.473-0.047,0.949-0.075,1.428-0.091c0.164-0.006,0.328-0.011,0.491-0.013l0.28-0.007c0.297,0,0.592,0.01,0.886,0.022
				c0.176,0.007,0.354,0.017,0.531,0.028c0.368,0.023,0.738,0.057,1.104,0.099l0.493,0.062c0.464,0.064,0.924,0.137,1.377,0.229
				c2.718,0.552,5.283,1.611,7.621,3.146l0.131,0.085c0.2,0.132,0.395,0.271,0.589,0.411l0.836,0.627
				c0.113,0.087,0.226,0.174,0.336,0.265l0.208,0.177c0.209,0.176,0.417,0.352,0.618,0.536c1.859,1.693,3.371,3.62,4.535,5.768
				c0.221,0.407,0.425,0.828,0.622,1.253c0.07,0.15,0.138,0.302,0.204,0.456c0.145,0.334,0.282,0.673,0.411,1.016
				c0.066,0.174,0.13,0.349,0.191,0.525c0.096,0.275,0.191,0.551,0.276,0.832l0.074,0.267c0.046,0.157,0.09,0.316,0.132,0.477
				c0.123,0.462,0.236,0.926,0.328,1.39l0.051,0.282c0.046,0.248,0.089,0.495,0.126,0.742c0.036,0.241,0.065,0.485,0.093,0.729
				l0.036,0.301c0.038,0.379,0.065,0.761,0.083,1.145c0.008,0.16,0.01,0.321,0.013,0.481l0.007,0.28
				c0.003,0.096,0.007,0.192,0.007,0.289v213.201C217.995,500.163,208.162,509.996,196.075,509.996z M175.155,303.112v184.964
				c0,11.535,9.385,20.92,20.92,20.92s20.92-9.385,20.92-20.92V274.875l-0.014-0.552c-0.002-0.15-0.005-0.3-0.012-0.45
				c-0.017-0.367-0.043-0.732-0.08-1.093l-0.034-0.288c-0.026-0.232-0.055-0.464-0.089-0.694c-0.035-0.236-0.077-0.471-0.121-0.707
				l-0.048-0.271c-0.087-0.442-0.196-0.885-0.313-1.327c-0.041-0.154-0.083-0.306-0.126-0.457l-0.071-0.254
				c-0.081-0.268-0.172-0.531-0.263-0.792c-0.059-0.167-0.12-0.335-0.183-0.501c-0.124-0.329-0.255-0.652-0.393-0.971
				c-0.063-0.145-0.127-0.289-0.194-0.433c-0.188-0.407-0.383-0.809-0.593-1.197c-1.111-2.049-2.553-3.888-4.286-5.465
				c-0.235-0.215-0.434-0.382-0.633-0.55l-0.199-0.169c-0.103-0.084-0.208-0.166-0.312-0.247l-0.806-0.604
				c-0.186-0.134-0.371-0.266-0.56-0.391l0.147-0.5l-0.274,0.418c-2.231-1.465-4.678-2.475-7.272-3.002
				c-0.433-0.088-0.871-0.157-1.313-0.218l-0.473-0.06c-0.347-0.04-0.699-0.072-1.053-0.094c-0.171-0.012-0.339-0.021-0.507-0.027
				c-0.282-0.012-0.562-0.021-0.845-0.021l-0.269,0.007c-0.155,0.002-0.311,0.006-0.468,0.012c-0.457,0.016-0.912,0.042-1.36,0.086
				l-0.283,0.034c-0.233,0.027-0.468,0.055-0.702,0.089c-0.228,0.035-0.458,0.075-0.688,0.118l-0.289,0.052
				c-0.355,0.07-0.712,0.152-1.068,0.242c-0.131,0.033-0.26,0.07-0.389,0.107l-0.863,0.248l-38.35,11.674
				c-11.035,3.36-17.28,15.071-13.921,26.106c2.702,8.871,10.741,14.832,20.006,14.832c2.06,0,4.112-0.307,6.1-0.912
				L175.155,303.112z"/>
		</g>
		<g>
			<path d="M326.17,498.689c13.744,7.172,28.396,10.807,43.549,10.807s29.805-3.635,43.549-10.807
				c12.902-6.73,24.41-16.268,34.203-28.346c19.406-23.938,30.094-55.498,30.094-88.867c0-33.371-10.688-64.932-30.094-88.869
				c-9.793-12.077-21.301-21.615-34.203-28.346c-13.744-7.171-28.396-10.806-43.549-10.806s-29.805,3.635-43.549,10.806
				c-12.902,6.731-24.41,16.269-34.203,28.346c-19.407,23.937-30.095,55.498-30.095,88.869c0,33.369,10.688,64.93,30.095,88.867
				C301.76,482.422,313.266,491.959,326.17,498.689z M325.244,319.588c12.178-15.02,27.973-23.293,44.475-23.293
				s32.297,8.273,44.475,23.293c13.24,16.332,20.533,38.311,20.533,61.889c0,23.576-7.293,45.557-20.533,61.887
				c-12.178,15.021-27.973,23.293-44.475,23.293s-32.297-8.271-44.475-23.293c-13.24-16.33-20.531-38.311-20.531-61.887
				C304.713,357.898,312.004,335.92,325.244,319.588z"/>
			<path d="M369.719,509.996c-15.236,0-29.966-3.655-43.78-10.863c-12.962-6.761-24.522-16.341-34.359-28.475
				c-19.479-24.025-30.207-55.698-30.207-89.182c0-33.485,10.728-65.158,30.207-89.184c9.836-12.131,21.396-21.711,34.359-28.475
				c13.815-7.208,28.545-10.863,43.78-10.863s29.965,3.655,43.78,10.863c12.963,6.763,24.523,16.343,34.36,28.475
				c19.478,24.025,30.205,55.698,30.205,89.184c0,33.483-10.728,65.156-30.205,89.182c-9.837,12.132-21.397,21.712-34.36,28.475
				C399.685,506.341,384.955,509.996,369.719,509.996z M369.719,253.956c-15.072,0-29.646,3.617-43.317,10.75
				c-12.842,6.7-24.296,16.193-34.046,28.218c-19.335,23.848-29.983,55.297-29.983,88.554c0,33.255,10.648,64.704,29.983,88.553
				c9.751,12.026,21.205,21.52,34.046,28.217c13.67,7.133,28.244,10.75,43.317,10.75s29.647-3.617,43.317-10.75
				c12.842-6.698,24.296-16.192,34.046-28.217c19.335-23.85,29.982-55.298,29.982-88.553c0-33.257-10.647-64.705-29.982-88.554
				c-9.75-12.024-21.205-21.519-34.046-28.218C399.365,257.572,384.791,253.956,369.719,253.956z M369.719,467.156
				c-16.656,0-32.589-8.338-44.863-23.479c-13.312-16.418-20.643-38.508-20.643-62.201c0-23.692,7.331-45.783,20.643-62.203
				c12.275-15.141,28.208-23.479,44.863-23.479s32.588,8.338,44.863,23.479c13.312,16.421,20.645,38.513,20.645,62.203
				c0,23.691-7.332,45.782-20.645,62.201C402.308,458.818,386.375,467.156,369.719,467.156z M369.719,296.795
				c-16.348,0-32.004,8.206-44.086,23.107c-13.168,16.243-20.42,38.11-20.42,61.574c0,23.465,7.252,45.331,20.42,61.572
				c12.08,14.901,27.737,23.107,44.086,23.107s32.006-8.206,44.086-23.107c13.169-16.243,20.422-38.109,20.422-61.572
				c0-23.462-7.253-45.329-20.422-61.574C401.723,305.001,386.066,296.795,369.719,296.795z"/>
		</g>
	</g>
</g>
<g>
</g>
<g>
</g>
<g>
</g>
<g>
</g>
<g>
</g>
<g>
</g>
<g>
</g>
<g>
</g>
<g>
</g>
<g>
</g>
<g>
</g>
<g>
</g>
<g>
</g>
<g>
</g>
<g>
</g>
</svg>
